<svg width="40" height="40" viewBox="0 0 40 40" fill="none" xmlns="http://www.w3.org/2000/svg">
<g clip-path="url(#clip0_1220_8343)">
<path d="M21 10.0004H34.01C36.214 10.0004 38 11.7924 38 13.9944V28.0004H24V32.0004H34.01C36.214 32.0004 38 33.7764 38 36.0004V40.0004H2V36.0004C2 33.7904 3.786 32.0004 5.99 32.0004H16V28.0004H2V13.9944C2 11.7884 3.786 10.0004 5.99 10.0004H19V5.83038C18.3328 5.59448 17.7704 5.13031 17.4124 4.5199C17.0543 3.90949 16.9235 3.19214 17.0432 2.49465C17.1629 1.79715 17.5253 1.16442 18.0663 0.708275C18.6074 0.252133 19.2923 0.00195313 20 0.00195312C20.7077 0.00195313 21.3926 0.252133 21.9337 0.708275C22.4747 1.16442 22.8371 1.79715 22.9568 2.49465C23.0765 3.19214 22.9457 3.90949 22.5876 4.5199C22.2296 5.13031 21.6672 5.59448 21 5.83038V10.0004ZM13 22.0004C13.7956 22.0004 14.5587 21.6843 15.1213 21.1217C15.6839 20.5591 16 19.796 16 19.0004C16 18.2047 15.6839 17.4417 15.1213 16.8791C14.5587 16.3164 13.7956 16.0004 13 16.0004C12.2044 16.0004 11.4413 16.3164 10.8787 16.8791C10.3161 17.4417 10 18.2047 10 19.0004C10 19.796 10.3161 20.5591 10.8787 21.1217C11.4413 21.6843 12.2044 22.0004 13 22.0004ZM27 22.0004C27.7956 22.0004 28.5587 21.6843 29.1213 21.1217C29.6839 20.5591 30 19.796 30 19.0004C30 18.2047 29.6839 17.4417 29.1213 16.8791C28.5587 16.3164 27.7956 16.0004 27 16.0004C26.2044 16.0004 25.4413 16.3164 24.8787 16.8791C24.3161 17.4417 24 18.2047 24 19.0004C24 19.796 24.3161 20.5591 24.8787 21.1217C25.4413 21.6843 26.2044 22.0004 27 22.0004Z" fill="black"/>
</g>
<defs>
<clipPath id="clip0_1220_8343">
<rect width="40" height="40" fill="white"/>
</clipPath>
</defs>
</svg>
