<svg width="40" height="40" viewBox="0 0 40 40" fill="none" xmlns="http://www.w3.org/2000/svg">
<path d="M33.3346 20.0003H6.66797M26.668 6.66699H30.0013C30.8854 6.66699 31.7332 7.01818 32.3583 7.6433C32.9834 8.26842 33.3346 9.11627 33.3346 10.0003V13.3337M13.3346 33.3337H10.0013C9.11725 33.3337 8.2694 32.9825 7.64428 32.3573C7.01916 31.7322 6.66797 30.8844 6.66797 30.0003V26.667M33.3346 26.667V30.0003C33.3346 30.8844 32.9834 31.7322 32.3583 32.3573C31.7332 32.9825 30.8854 33.3337 30.0013 33.3337H26.668M6.66797 13.3337V10.0003C6.66797 9.11627 7.01916 8.26842 7.64428 7.6433C8.2694 7.01818 9.11725 6.66699 10.0013 6.66699H13.3346" stroke="black" stroke-width="2.5" stroke-linecap="round" stroke-linejoin="round"/>
</svg>
